<svg xmlns="http://www.w3.org/2000/svg" width="204" height="30" viewBox="0 0 204 30">
  <g fill="none">
    <path fill="#FFF" d="M52.0446927,24.1843575 L54.4748603,17.2625698 L64.0949721,17.2625698 L66.5251397,24.1843575 L69.6927374,24.1843575 L60.7765363,0 L57.7932961,0 L48.877095,24.1843575 L52.0446927,24.1843575 Z M63.2067039,14.698324 L55.3631285,14.698324 L59.2346369,3.67039106 L59.3351955,3.67039106 L63.2067039,14.698324 Z M73.9683426,30 L73.9683426,21.3519553 L74.0353818,21.3519553 C75.0744879,23.2625698 77.0856611,24.4860335 79.5828678,24.4860335 C83.9739292,24.4860335 86.9739292,20.9329609 86.9739292,15.4692737 C86.9739292,10.0055866 83.9571695,6.45251397 79.5158287,6.45251397 C76.9851024,6.45251397 74.9571695,7.74301676 73.8845438,9.70391061 L73.8175047,9.70391061 L73.8175047,6.75418994 L71.0521415,6.75418994 L71.0521415,30 L73.9683426,30 Z M78.9459963,21.9217877 C75.9627561,21.9217877 73.9515829,19.3575419 73.9515829,15.4692737 C73.9515829,11.5977654 75.9627561,9.01675978 78.9459963,9.01675978 C82.0465549,9.01675978 83.990689,11.5307263 83.990689,15.4692737 C83.990689,19.424581 82.0465549,21.9217877 78.9459963,21.9217877 Z M91.8696462,30 L91.8696462,21.3519553 L91.9366853,21.3519553 C92.9757914,23.2625698 94.9869646,24.4860335 97.4841713,24.4860335 C101.875233,24.4860335 104.875233,20.9329609 104.875233,15.4692737 C104.875233,10.0055866 101.858473,6.45251397 97.4171322,6.45251397 C94.886406,6.45251397 92.858473,7.74301676 91.7858473,9.70391061 L91.7188082,9.70391061 L91.7188082,6.75418994 L88.9534451,6.75418994 L88.9534451,30 L91.8696462,30 Z M96.8472998,21.9217877 C93.8640596,21.9217877 91.8528864,19.3575419 91.8528864,15.4692737 C91.8528864,11.5977654 93.8640596,9.01675978 96.8472998,9.01675978 C99.9478585,9.01675978 101.891993,11.5307263 101.891993,15.4692737 C101.891993,19.424581 99.9478585,21.9217877 96.8472998,21.9217877 Z M110.324022,24.1843575 L110.324022,14.6145251 L116.106145,14.6145251 L121.284916,24.1843575 L124.821229,24.1843575 L119.223464,14.1452514 C122.256983,13.1899441 124.083799,10.575419 124.083799,7.20670391 C124.083799,2.84916201 121.03352,0 116.374302,0 L107.307263,0 L107.307263,24.1843575 L110.324022,24.1843575 Z M116.106145,11.9497207 L110.324022,11.9497207 L110.324022,2.68156425 L115.972067,2.68156425 C119.089385,2.68156425 120.96648,4.40782123 120.96648,7.30726257 C120.96648,10.273743 119.206704,11.9497207 116.106145,11.9497207 Z M133.638734,24.4860335 C137.443203,24.4860335 140.392924,22.2402235 140.895717,19.1899441 L138.029795,19.1899441 C137.543762,20.8324022 135.918063,21.9553073 133.705773,21.9553073 C130.571695,21.9553073 128.610801,19.7597765 128.610801,16.424581 L128.610801,16.2569832 L141.113594,16.2569832 L141.113594,15.150838 C141.113594,9.87150838 138.214153,6.45251397 133.504655,6.45251397 C128.6946,6.45251397 125.610801,10.122905 125.610801,15.5363128 C125.610801,21.0167598 128.64432,24.4860335 133.638734,24.4860335 Z M138.096834,13.9776536 L128.627561,13.9776536 C128.811918,11.0782123 130.722533,8.98324022 133.454376,8.98324022 C136.20298,8.98324022 138.029795,11.0614525 138.096834,13.9776536 Z M150.986965,24.1843575 L157.389199,6.75418994 L154.35568,6.75418994 L149.528864,21.0837989 L149.461825,21.0837989 L144.651769,6.75418994 L141.58473,6.75418994 L148.003724,24.1843575 L150.986965,24.1843575 Z M160.324022,3.65363128 C161.346369,3.65363128 162.150838,2.83240223 162.150838,1.82681564 C162.150838,0.804469274 161.346369,0 160.324022,0 C159.318436,0 158.497207,0.804469274 158.497207,1.82681564 C158.497207,2.83240223 159.318436,3.65363128 160.324022,3.65363128 Z M161.782123,24.1843575 L161.782123,6.75418994 L158.865922,6.75418994 L158.865922,24.1843575 L161.782123,24.1843575 Z M171.94041,24.4860335 C175.744879,24.4860335 178.6946,22.2402235 179.197393,19.1899441 L176.331471,19.1899441 C175.845438,20.8324022 174.219739,21.9553073 172.007449,21.9553073 C168.873371,21.9553073 166.912477,19.7597765 166.912477,16.424581 L166.912477,16.2569832 L179.41527,16.2569832 L179.41527,15.150838 C179.41527,9.87150838 176.515829,6.45251397 171.806331,6.45251397 C166.996276,6.45251397 163.912477,10.122905 163.912477,15.5363128 C163.912477,21.0167598 166.945996,24.4860335 171.94041,24.4860335 Z M176.39851,13.9776536 L166.929236,13.9776536 C167.113594,11.0782123 169.024209,8.98324022 171.756052,8.98324022 C174.504655,8.98324022 176.331471,11.0614525 176.39851,13.9776536 Z M187.81378,24.1843575 L191.735568,10.6927374 L191.802607,10.6927374 L195.741155,24.1843575 L198.707635,24.1843575 L203.56797,6.75418994 L200.685289,6.75418994 L197.199255,20.9329609 L197.132216,20.9329609 L193.176909,6.75418994 L190.361266,6.75418994 L186.422719,20.9329609 L186.35568,20.9329609 L182.869646,6.75418994 L179.970205,6.75418994 L184.8473,24.1843575 L187.81378,24.1843575 Z"/>
    <path fill="#00BCD4" d="M41.2495345,6.45251397 C45.6908752,6.45251397 48.707635,10.0055866 48.707635,15.4692737 C48.707635,20.9329609 45.707635,24.4860335 41.3165736,24.4860335 C38.8193669,24.4860335 36.8081937,23.2625698 35.7690875,21.3519553 L35.7690875,21.3519553 L35.7020484,21.3519553 L35.7020484,30 L32.7858473,30 L32.7858473,6.75418994 L35.5512104,6.75418994 L35.5512104,9.70391061 L35.6182495,9.70391061 C36.6908752,7.74301676 38.7188082,6.45251397 41.2495345,6.45251397 Z M22.744879,6.45251397 C27.5549348,6.45251397 30.8063315,9.90502793 30.8063315,15.4692737 C30.8063315,21.0167598 27.5549348,24.4860335 22.744879,24.4860335 C21.4987661,24.4860335 20.3576533,24.2548101 19.350378,23.8162983 L24.0598511,15.8588721 L26.8007433,17.3889319 L25.2013538,10.2750595 L18.029924,12.4927605 L20.7708068,14.0228151 L16.3869419,21.4317323 C15.2866035,19.917704 14.6666667,17.8916131 14.6666667,15.4692737 C14.6666667,9.90502793 17.9180633,6.45251397 22.744879,6.45251397 Z M18.2681564,0 L18.2681564,2.7150838 L10.6424581,2.7150838 L10.6424581,24.1843575 L7.62569832,24.1843575 L7.62569832,2.7150838 L0,2.7150838 L0,0 L18.2681564,0 Z M40.679702,9.01675978 C37.6964618,9.01675978 35.6852886,11.5977654 35.6852886,15.4692737 C35.6852886,19.3575419 37.6964618,21.9217877 40.679702,21.9217877 C43.7802607,21.9217877 45.7243948,19.424581 45.7243948,15.4692737 C45.7243948,11.5307263 43.7802607,9.01675978 40.679702,9.01675978 Z"/>
  </g>
</svg>
