<svg xmlns="http://www.w3.org/2000/svg" width="150" height="22" viewBox="0 0 150 22">
  <path fill="#FFF" d="M127.39491,618.731844 C130.667533,618.731844 132.890446,621.33743 132.890446,625.344134 C132.890446,629.350838 130.679882,631.956425 127.444308,631.956425 C125.60423,631.956425 124.122288,631.059218 123.356618,629.658101 L123.356618,629.658101 L123.307219,629.658101 L123.307219,636 L121.158403,636 L121.158403,618.953073 L123.196074,618.953073 L123.196074,621.116201 L123.245472,621.116201 C124.035841,619.678212 125.530133,618.731844 127.39491,618.731844 Z M155.591606,618.731844 C158.864228,618.731844 161.087142,621.33743 161.087142,625.344134 C161.087142,629.350838 158.876578,631.956425 155.641004,631.956425 C153.800926,631.956425 152.318983,631.059218 151.553313,629.658101 L151.553313,629.658101 L151.503915,629.658101 L151.503915,636 L149.355099,636 L149.355099,618.953073 L151.39277,618.953073 L151.39277,621.116201 L151.442168,621.116201 C152.232537,619.678212 153.726829,618.731844 155.591606,618.731844 Z M168.782264,618.731844 C172.054887,618.731844 174.2778,621.33743 174.2778,625.344134 C174.2778,629.350838 172.067236,631.956425 168.831662,631.956425 C166.991584,631.956425 165.509642,631.059218 164.743972,629.658101 L164.743972,629.658101 L164.694574,629.658101 L164.694574,636 L162.545757,636 L162.545757,618.953073 L164.583428,618.953073 L164.583428,621.116201 L164.632826,621.116201 C165.423195,619.678212 166.917487,618.731844 168.782264,618.731844 Z M223.59629,618.731844 C227.066504,618.731844 229.202971,621.239106 229.202971,625.110615 L229.202971,625.110615 L229.202971,625.921788 L219.99023,625.921788 L219.99023,626.044693 C219.99023,628.490503 221.435124,630.100559 223.744484,630.100559 C225.37462,630.100559 226.572524,629.277095 226.93066,628.072626 L226.93066,628.072626 L229.042427,628.072626 C228.671942,630.309497 226.498427,631.956425 223.695086,631.956425 C220.014929,631.956425 217.779666,629.412291 217.779666,625.393296 C217.779666,621.423464 220.051978,618.731844 223.59629,618.731844 Z M113.759669,618.731844 C117.303981,618.731844 119.699788,621.263687 119.699788,625.344134 C119.699788,629.412291 117.303981,631.956425 113.759669,631.956425 C112.841688,631.956425 112.00104,631.786943 111.258957,631.46552 L114.728613,625.62984 L116.748252,626.751883 L115.569734,621.535044 L110.285433,623.161358 L112.305065,624.283398 L109.074493,629.716192 C108.263891,628.605949 107.807201,627.120296 107.807201,625.344134 C107.807201,621.263687 110.203008,618.731844 113.759669,618.731844 Z M195.373523,618.731844 C198.843737,618.731844 200.980204,621.239106 200.980204,625.110615 L200.980204,625.110615 L200.980204,625.921788 L191.767463,625.921788 L191.767463,626.044693 C191.767463,628.490503 193.212357,630.100559 195.521717,630.100559 C197.151853,630.100559 198.349757,629.277095 198.707893,628.072626 L198.707893,628.072626 L200.81966,628.072626 C200.449175,630.309497 198.27566,631.956425 195.472319,631.956425 C191.792162,631.956425 189.556899,629.412291 189.556899,625.393296 C189.556899,621.423464 191.829211,618.731844 195.373523,618.731844 Z M216.209905,618.953073 L216.209905,631.735196 L214.061089,631.735196 L214.061089,618.953073 L216.209905,618.953073 Z M182.750942,614 C186.184108,614 188.431721,616.089385 188.431721,619.284916 C188.431721,621.755307 187.085623,623.672626 184.85036,624.373184 L184.85036,624.373184 L188.9751,631.735196 L186.369351,631.735196 L182.55335,624.717318 L178.292766,624.717318 L178.292766,631.735196 L176.069853,631.735196 L176.069853,614 Z M141.783472,614 L148.353416,631.735196 L146.019357,631.735196 L144.228676,626.659218 L137.140053,626.659218 L135.349372,631.735196 L133.015313,631.735196 L139.585257,614 L141.783472,614 Z M203.587325,618.953073 L207.131637,629.461453 L207.181035,629.461453 L210.737696,618.953073 L212.972959,618.953073 L208.255443,631.735196 L206.057229,631.735196 L201.327363,618.953073 L203.587325,618.953073 Z M110.460976,614 L110.460976,615.991061 L104.841944,615.991061 L104.841944,631.735196 L102.619031,631.735196 L102.619031,615.991061 L97,615.991061 L97,614 L110.460976,614 Z M231.748344,618.953073 L234.317044,629.350838 L234.366442,629.350838 L237.268579,618.953073 L239.343298,618.953073 L242.257785,629.350838 L242.307183,629.350838 L244.875883,618.953073 L247,618.953073 L243.41864,631.735196 L241.232775,631.735196 L238.330638,621.841341 L238.28124,621.841341 L235.391452,631.735196 L233.205587,631.735196 L229.611877,618.953073 L231.748344,618.953073 Z M168.362381,620.612291 C166.164166,620.612291 164.682224,622.505028 164.682224,625.344134 C164.682224,628.195531 166.164166,630.075978 168.362381,630.075978 C170.647042,630.075978 172.079586,628.244693 172.079586,625.344134 C172.079586,622.455866 170.647042,620.612291 168.362381,620.612291 Z M126.975027,620.612291 C124.776812,620.612291 123.29487,622.505028 123.29487,625.344134 C123.29487,628.195531 124.776812,630.075978 126.975027,630.075978 C129.259688,630.075978 130.692232,628.244693 130.692232,625.344134 C130.692232,622.455866 129.259688,620.612291 126.975027,620.612291 Z M155.171722,620.612291 C152.973508,620.612291 151.491566,622.505028 151.491566,625.344134 C151.491566,628.195531 152.973508,630.075978 155.171722,630.075978 C157.456383,630.075978 158.888928,628.244693 158.888928,625.344134 C158.888928,622.455866 157.456383,620.612291 155.171722,620.612291 Z M140.721413,616.69162 L140.647316,616.69162 L137.794577,624.778771 L143.574152,624.778771 L140.721413,616.69162 Z M195.336474,620.587709 C193.323503,620.587709 191.915657,622.124022 191.779813,624.250279 L191.779813,624.250279 L198.757291,624.250279 C198.707893,622.111732 197.361795,620.587709 195.336474,620.587709 Z M223.559241,620.587709 C221.54627,620.587709 220.138424,622.124022 220.00258,624.250279 L220.00258,624.250279 L226.980058,624.250279 C226.93066,622.111732 225.584562,620.587709 223.559241,620.587709 Z M182.454554,615.96648 L178.292766,615.96648 L178.292766,622.763128 L182.55335,622.763128 C184.838011,622.763128 186.13471,621.534078 186.13471,619.358659 C186.13471,617.232402 184.751564,615.96648 182.454554,615.96648 L182.454554,615.96648 Z M215.135497,614 C215.888818,614 216.481595,614.589944 216.481595,615.339665 C216.481595,616.077095 215.888818,616.67933 215.135497,616.67933 C214.394526,616.67933 213.7894,616.077095 213.7894,615.339665 C213.7894,614.589944 214.394526,614 215.135497,614 Z" transform="translate(-97 -614)"/>
</svg>
