<svg xmlns="http://www.w3.org/2000/svg" width="129" height="24" viewBox="0 0 129 24">
  <g fill="none">
    <g fill="#FFF">
      <polygon points="7.293 23.801 7.293 3.381 11.204 3.381 11.204 .199 0 .199 0 3.381 3.912 3.381 3.912 23.801"/>
      <path d="M17.7679558 0C18.4530387 0 19.1325967.121546961 19.8066298.364640884 20.480663.607734807 21.0939227.961325967 21.6464088 1.42541436 22.1767956 1.91160221 22.6077348 2.51933702 22.9392265 3.24861878 23.2707182 3.97790055 23.4364641 4.81767956 23.4364641 5.7679558L23.4364641 5.7679558 23.4364641 18.2320442 23.4303254 18.5582157C23.3975854 19.413819 23.2338858 20.1559239 22.9392265 20.7845304 22.6077348 21.4917127 22.1767956 22.0773481 21.6464088 22.5414365 21.0939227 23.0276243 20.480663 23.3922652 19.8066298 23.6353591 19.1325967 23.878453 18.4530387 24 17.7679558 24 17.0828729 24 16.4033149 23.878453 15.7292818 23.6353591 15.0552486 23.3922652 14.4530387 23.0276243 13.9226519 22.5414365 13.3701657 22.0773481 12.9281768 21.4917127 12.5966851 20.7845304 12.2651934 20.0773481 12.0994475 19.2265193 12.0994475 18.2320442L12.0994475 18.2320442 12.0994475 5.7679558 12.1055862 5.45528954C12.1383262 4.63242616 12.3020258 3.89686924 12.5966851 3.24861878 12.9281768 2.51933702 13.3701657 1.91160221 13.9226519 1.42541436 14.4530387.961325967 15.0552486.607734807 15.7292818.364640884 16.4033149.121546961 17.0828729 0 17.7679558 0zM17.7679558 3.38121547C17.1491713 3.38121547 16.6132597 3.57458564 16.160221 3.96132597 15.7071823 4.3480663 15.480663 4.95027624 15.480663 5.7679558L15.480663 5.7679558 15.480663 18.2320442 15.4862792 18.4497055C15.5237204 19.1574357 15.7483677 19.6870919 16.160221 20.038674 16.6132597 20.4254144 17.1491713 20.6187845 17.7679558 20.6187845 18.3867403 20.6187845 18.9226519 20.4254144 19.3756906 20.038674 19.8287293 19.6519337 20.0552486 19.0497238 20.0552486 18.2320442L20.0552486 18.2320442 20.0552486 5.7679558 20.0496324 5.55029451C20.0121912 4.84256427 19.7875439 4.31290809 19.3756906 3.96132597 18.9226519 3.57458564 18.3867403 3.38121547 17.7679558 3.38121547zM31.4917127.198895028L31.8345994.204592541C32.6225829.231180939 33.3259669.350828729 33.9447514.563535912 34.6519337.806629834 35.2928177 1.23756906 35.8674033 1.85635359 36.441989 2.47513812 36.839779 3.19889503 37.0607735 4.02762431 37.281768 4.85635359 37.3922652 5.97790055 37.3922652 7.39226519 37.3922652 8.45303867 37.3314917 9.3480663 37.2099448 10.0773481 37.0883978 10.8066298 36.8287293 11.4917127 36.4309392 12.1325967 35.9668508 12.9060773 35.3480663 13.5082873 34.5745856 13.9392265 33.801105 14.3701657 32.7845304 14.5856354 31.5248619 14.5856354L31.5248619 14.5856354 29.801105 14.5856354 29.801105 23.801105 26.4198895 23.801105 26.4198895.198895028 31.4917127.198895028zM31.558011 3.38121547L29.801105 3.38121547 29.801105 11.4033149 31.4254144 11.4033149C32.1104972 11.4033149 32.640884 11.3038674 33.0165746 11.1049724 33.3922652 10.9060773 33.6685083 10.6298343 33.8453039 10.2762431 34.0220994 9.94475138 34.1270718 9.5359116 34.160221 9.04972376 34.1933702 8.56353591 34.2099448 8.02209945 34.2099448 7.42541436 34.2099448 6.87292818 34.198895 6.3480663 34.1767956 5.85082873 34.1546961 5.35359116 34.0552486 4.91712707 33.878453 4.54143646 33.7016575 4.16574586 33.4364641 3.87845304 33.0828729 3.67955801 32.7292818 3.48066298 32.2209945 3.38121547 31.558011 3.38121547L31.558011 3.38121547z"/>
    </g>
    <g fill="#FFF" transform="translate(40.516 .199)">
      <polygon points="7.293 23.602 7.293 3.182 11.204 3.182 11.204 0 0 0 0 3.182 3.912 3.182 3.912 23.602"/>
      <polygon points="22.773 23.602 22.773 20.221 16.077 20.221 16.077 13.293 21.912 13.293 21.912 10.11 16.077 10.11 16.077 3.182 22.773 3.182 22.773 0 12.696 0 12.696 23.602"/>
      <polygon points="28.21 23.602 28.21 9.414 28.276 9.414 33.448 23.602 36.63 23.602 36.63 0 33.249 0 33.249 14.221 33.182 14.221 28.077 0 24.829 0 24.829 23.602"/>
    </g>
    <g transform="translate(82.766)">
      <polygon fill="#FFF" points="3.381 23.801 3.381 13.293 7.558 13.293 7.558 23.801 7.558 .199 7.558 10.309 3.381 10.309 3.381 .199 0 .199 0 23.801"/>
      <path fill="#47FDFF" d="M19.5911602,0 C20.2762431,0 20.9558011,0.121546961 21.6298343,0.364640884 C22.3038674,0.607734807 22.9171271,0.961325967 23.4696133,1.42541436 C24,1.91160221 24.4309392,2.51933702 24.7624309,3.24861878 C25.0939227,3.97790055 25.2596685,4.81767956 25.2596685,5.7679558 L25.2596685,5.7679558 L25.2596685,18.2320442 L25.2535298,18.5582157 C25.2207899,19.413819 25.0570902,20.1559239 24.7624309,20.7845304 C24.4309392,21.4917127 24,22.0773481 23.4696133,22.5414365 C22.9171271,23.0276243 22.3038674,23.3922652 21.6298343,23.6353591 C20.9558011,23.878453 20.2762431,24 19.5911602,24 C18.9060773,24 18.2265193,23.878453 17.5524862,23.6353591 C16.878453,23.3922652 16.2762431,23.0276243 15.7458564,22.5414365 C15.1933702,22.0773481 14.7513812,21.4917127 14.4198895,20.7845304 C14.0883978,20.0773481 13.9226519,19.2265193 13.9226519,18.2320442 L13.9226519,18.2320442 L13.9226519,5.7679558 L13.9287907,5.45528954 C13.9615306,4.63242616 14.1252302,3.89686924 14.4198895,3.24861878 C14.7513812,2.51933702 15.1933702,1.91160221 15.7458564,1.42541436 C16.2762431,0.961325967 16.878453,0.607734807 17.5524862,0.364640884 C18.2265193,0.121546961 18.9060773,0 19.5911602,0 Z M19.5911602,3.38121547 C18.9723757,3.38121547 18.4364641,3.57458564 17.9834254,3.96132597 C17.5303867,4.3480663 17.3038674,4.95027624 17.3038674,5.7679558 L17.3038674,5.7679558 L17.3038674,18.2320442 L17.3094836,18.4497055 C17.3469248,19.1574357 17.5715721,19.6870919 17.9834254,20.038674 C18.4364641,20.4254144 18.9723757,20.6187845 19.5911602,20.6187845 C20.2099448,20.6187845 20.7458564,20.4254144 21.198895,20.038674 C21.6519337,19.6519337 21.878453,19.0497238 21.878453,18.2320442 L21.878453,18.2320442 L21.878453,5.7679558 L21.8728369,5.55029451 C21.8353956,4.84256427 21.6107484,4.31290809 21.198895,3.96132597 C20.7458564,3.57458564 20.2099448,3.38121547 19.5911602,3.38121547 Z"/>
      <polygon fill="#FFF" points="33.481 23.801 36.033 8.486 36.099 8.486 38.685 23.801 41.867 23.801 45.381 .199 41.801 .199 40.177 15.547 40.11 15.547 37.359 .199 34.773 .199 32.122 15.182 32.055 15.182 30.365 .199 26.785 .199 30.298 23.801"/>
      <polygon fill="#47FDFF" points="10.928 23.801 10.928 .199 7.547 .199 5.087 1.764 5.087 5.344 7.547 3.779 7.547 23.801"/>
    </g>
  </g>
</svg>
